HIERARCHY
ROOT Hips
{
    OFFSET 0.0 0.0 0.0
    CHANNELS 6 Xposition Yposition Zposition Zrotation Xrotation Yrotation
    JOINT LeftHipJoint
    {
        OFFSET 0.1 0.0 0.0
        CHANNELS 3 Zrotation Xrotation Yrotation
        JOINT LeftUpLeg
        {
            OFFSET 128.12625544199227 0.0 0.0
            CHANNELS 3 Zrotation Xrotation Yrotation
            JOINT LeftLeg
            {
                OFFSET 0.0 0.0 -436.0018232145886
                CHANNELS 3 Zrotation Xrotation Yrotation
                JOINT LeftFoot
                {
                    OFFSET 0.0 0.0 -389.0138088731734
                    CHANNELS 3 Zrotation Xrotation Yrotation
                    End Site
                    {
                        OFFSET 0.0 -0.1 0.0
                    }
                }
            }
        }
    }
    JOINT LowerBack
    {
        OFFSET 0.0 0.0 0.1
        CHANNELS 3 Zrotation Xrotation Yrotation
        JOINT Spine
        {
            OFFSET 0.0 0.0 228.11837324545036
            CHANNELS 3 Zrotation Xrotation Yrotation
            JOINT Spine1
            {
                OFFSET 0.0 0.0 246.67514899423182
                CHANNELS 3 Zrotation Xrotation Yrotation
                JOINT LeftShoulder
                {
                    OFFSET 0.1 0.0 0.0
                    CHANNELS 3 Zrotation Xrotation Yrotation
                    JOINT LeftArm
                    {
                        OFFSET 146.52395017703867 0.0 0.0
                        CHANNELS 3 Zrotation Xrotation Yrotation
                        JOINT LeftForeArm
                        {
                            OFFSET 281.9857458883191 0.0 0.0
                            CHANNELS 3 Zrotation Xrotation Yrotation
                            JOINT LeftHand
                            {
                                OFFSET 244.5826441246545 0.0 0.0
                                CHANNELS 3 Zrotation Xrotation Yrotation
                                End Site
                                {
                                    OFFSET 0.1 0.0 0.0
                                }
                            }
                        }
                    }
                }
                JOINT Neck
                {
                    OFFSET 0.0 0.0 0.1
                    CHANNELS 3 Zrotation Xrotation Yrotation
                    JOINT Neck1
                    {
                        OFFSET 0.0 0.0 104.42614435103883
                        CHANNELS 3 Zrotation Xrotation Yrotation
                        End Site
                        {
                            OFFSET 0.0 0.0 107.4239698625697
                        }
                    }
                }
                JOINT RightShoulder
                {
                    OFFSET -0.1 0.0 0.0
                    CHANNELS 3 Zrotation Xrotation Yrotation
                    JOINT RightArm
                    {
                        OFFSET -146.52395017703867 0.0 0.0
                        CHANNELS 3 Zrotation Xrotation Yrotation
                        JOINT RightForeArm
                        {
                            OFFSET -281.9857458883191 0.0 0.0
                            CHANNELS 3 Zrotation Xrotation Yrotation
                            JOINT RightHand
                            {
                                OFFSET -244.5826441246545 0.0 0.0
                                CHANNELS 3 Zrotation Xrotation Yrotation
                                End Site
                                {
                                    OFFSET -0.1 0.0 0.0
                                }
                            }
                        }
                    }
                }
            }
        }
    }
    JOINT RightHipJoint
    {
        OFFSET -0.1 0.0 0.0
        CHANNELS 3 Zrotation Xrotation Yrotation
        JOINT RightUpLeg
        {
            OFFSET -128.12625544199227 0.0 0.0
            CHANNELS 3 Zrotation Xrotation Yrotation
            JOINT RightLeg
            {
                OFFSET 0.0 0.0 -436.0018232145886
                CHANNELS 3 Zrotation Xrotation Yrotation
                JOINT RightFoot
                {
                    OFFSET 0.0 0.0 -389.0138088731734
                    CHANNELS 3 Zrotation Xrotation Yrotation
                    End Site
                    {
                        OFFSET 0.0 -0.1 0.0
                    }
                }
            }
        }
    }
}
MOTION
Frames: 10
Frame Time: 0.03333333333333333
0.0 0.0 836.4528000309624 28.475636226501834 -18.196096385768804 7.141230340821197 0.0 0.0 0.0 0.3573224778168421 9.149340784137983 -1.0552081644906743 0.3017330781590612 14.473556055878051 -1.4011194013171004 0.0 0.0 0.0 0.0 0.0 0.0 0.5964178054097256 15.182241897034073 1.457791215876871 -1.9956702417541643 -4.1135608941352595e-16 7.880945686219606e-16 0.0 0.0 -3.975693351829396e-16 -88.94983245791703 11.96483736400545 49.68093335650191 -103.63007947136049 1.1432382197639916e-14 -8.98722621401805e-16 -1.5902773407317584e-15 -2.2069531490250793e-32 1.5902773407317584e-15 0.0 0.0 -3.975693351829396e-16 -11.565114817017259 11.436985987570507 -21.84943099570505 0.0 0.0 -3.975693351829396e-16 73.09589524846754 -5.692166033173273 -46.018398929965976 109.78049781607321 5.976297407789534e-15 8.089694067852197e-15 0.0 0.0 3.975693351829396e-16 0.0 0.0 0.0 0.4601703498843591 11.907425012143753 -7.766268281885995 -1.5529488364955568 15.664693215263965 4.021575355912879 0.0 0.0 -3.975693351829396e-16
0.0 0.0 836.4528000309624 28.438865067741016 -18.08418241374978 7.276668467971649 2.2069531490250793e-32 3.1805546814635168e-15 -7.951386703658792e-16 0.36891392651672744 8.949995279844835 -1.3341412551177503 0.2644789590873701 14.6224690506733 -1.2812492701464018 2.758691436281349e-33 -7.951386703658792e-16 3.975693351829396e-16 2.2069531490250793e-32 3.1805546814635168e-15 -7.951386703658792e-16 0.6289545739398774 15.158368481778641 1.3293432777525904 -2.019603733577463 8.230413623517139e-16 -1.576017271927667e-15 0.0 0.0 5.963540027744094e-16 -89.04489217527684 12.042492967292933 49.628399094147504 -103.57635810275937 0.0 -0.0 -1.5902773407317584e-15 0.0 0.0 0.0 0.0 5.963540027744094e-16 -11.460584497130018 11.296539678275401 -21.93126977021389 0.0 0.0 5.963540027744094e-16 72.68694612642967 -6.064243744513608 -45.996339862694725 110.25013538739968 -2.609333800521864e-15 -1.81859979083734e-15 0.0 0.0 0.0 2.2069531490250793e-32 3.1805546814635168e-15 -7.951386703658792e-16 0.4821352109610989 11.808561310136989 -7.904120984953175 -1.561849680011496 15.716220251441747 3.7934975506210997 0.0 0.0 0.0
0.0 0.0 836.4528000309624 28.570746588427404 -17.939704678829735 7.425083855508551 0.0 0.0 0.0 0.3703315472456023 8.612005328052522 -1.6545803200621518 0.20861462005358225 14.723925366986933 -1.1881399509538082 0.0 0.0 9.939233379573488e-16 0.0 0.0 0.0 0.6560988212440272 15.148854308254252 1.2374968416699539 -2.0749010677460578 -4.1190089491044475e-16 7.878099606891229e-16 0.0 0.0 1.987846675914698e-16 -89.31086309714344 12.26147147413521 49.55037120912416 -103.54405649273808 8.933204019781571e-15 1.0607971508230422e-15 0.0 0.0 0.0 0.0 0.0 1.987846675914698e-16 -11.433039013300958 11.207715430167422 -22.03590362169051 0.0 0.0 1.987846675914698e-16 72.38122788660428 -6.2909405827400775 -45.966636617074656 110.6526908855238 -4.425128458295776e-15 8.062842495918123e-16 0.0 0.0 0.0 0.0 0.0 0.0 0.49774252899899957 11.680433958983222 -8.128407281591066 -1.6073271906309092 15.818286025632982 3.740963292035872 -1.3793457181406746e-33 -1.987846675914698e-16 -7.951386703658792e-16
0.0 0.0 836.4528000309624 28.67205215059577 -17.899769546662608 7.519579931231557 0.0 0.0 0.0 0.3699447758734398 8.417678782759312 -1.8812498096321733 0.16325255000655892 14.733299573934067 -1.0547374362369426 0.0 0.0 1.987846675914698e-16 0.0 0.0 0.0 0.6719482968035206 15.172674419437524 1.2053693233876983 -2.1411244963628238 1.8570214051687254e-17 -9.937498422069578e-16 0.0 0.0 -3.975693351829396e-16 -89.54115896997399 12.386322149448816 49.63945495964909 -103.34104138586456 -2.036514830604947e-14 -1.1741305536242564e-16 0.0 0.0 1.5902773407317584e-15 0.0 0.0 -3.975693351829396e-16 -11.455933144928066 11.144641225028364 -22.050622747422256 0.0 0.0 -3.975693351829396e-16 72.09411787259069 -6.541472334873418 -46.03861009101578 110.88005891623573 -9.836205646788409e-15 8.672936980304837e-15 0.0 0.0 0.0 0.0 0.0 0.0 0.5090020166349095 11.679408441831463 -8.28613113264634 -1.6246203050469208 15.708445221221968 3.5978282577154443 0.0 0.0 -3.975693351829396e-16
0.0 0.0 836.4528000309624 28.71724153464957 -17.756895615429446 7.639902555284217 0.0 0.0 0.0 0.3647961484222807 8.181254157217753 -2.0914718942357724 0.11761775733147026 14.77864208313144 -1.0298046716002431 0.0 0.0 -3.975693351829396e-16 0.0 0.0 0.0 0.6815981199931906 15.167353298257284 1.1702083710222586 -2.1573957060272337 -1.987494390693725e-15 -3.742263895149101e-17 0.0 0.0 1.987846675914698e-16 -89.87376250389586 12.596114405867693 49.719083157285226 -103.18591206115306 3.951801808860226e-15 4.984673990403688e-15 0.0 0.0 0.0 0.0 0.0 1.987846675914698e-16 -11.4940097457071 11.1072128968808 -22.153366584743374 0.0 0.0 1.987846675914698e-16 71.61855575393179 -6.93214200046665 -46.10249044579713 111.43707166014073 8.365551884956558e-16 4.419505807232295e-15 0.0 0.0 0.0 0.0 0.0 0.0 0.511346910595636 11.56655875052868 -8.422148677154935 -1.64575809267637 15.643085827486033 3.5237102908046314 0.0 0.0 3.975693351829396e-16
0.0 0.0 836.4528000309624 28.783444714644336 -17.676988963000042 7.7630038017560405 0.0 0.0 0.0 0.36401400245268584 7.958581022905064 -2.352223623301344 0.06646723608889413 14.895917434356345 -0.951290858348283 1.034509288605506e-33 -1.9878466759146977e-16 5.963540027744093e-16 0.0 0.0 0.0 0.6980526279321164 15.13928019699411 1.1019746218404183 -2.209783870952942 1.421898963061681e-15 -1.5631497748751062e-15 0.0 0.0 -3.975693351829396e-16 -90.270414389055 12.72647854290508 49.791056538505934 -103.14715873927398 1.4618187028344175e-15 6.960080925459198e-15 0.0 0.0 1.5902773407317584e-15 0.0 0.0 -3.975693351829396e-16 -11.444810206216403 11.184457290072373 -22.238779948272345 0.0 0.0 -3.975693351829396e-16 71.35141829721292 -7.34743749066395 -46.15078228694314 111.81141569603177 -2.6338687987737648e-15 -1.782880599654823e-15 0.0 0.0 0.0 0.0 0.0 0.0 0.523247024449993 11.533492189697993 -8.527386175917865 -1.6484537584022019 15.569156502936021 3.25026698989313 0.0 0.0 -3.975693351829396e-16
0.0 0.0 836.4528000309624 28.733496768814994 -17.344488912356884 7.8529629012769755 0.0 0.0 0.0 0.3466667237017208 7.484559249046761 -2.553061091819907 0.021434624524216916 14.976467284866672 -0.9824480589721474 0.0 0.0 -3.975693351829396e-16 0.0 0.0 0.0 0.7050827151458138 15.095785121512716 1.052695727010076 -2.267084497436368 -2.066107821683112e-16 3.9355902357721945e-16 0.0 1.987846675914698e-16 0.0 -90.38143660773336 12.75816557352487 49.56692985722393 -103.3798912041359 6.439036360506305e-15 3.0196773266319677e-15 0.0 0.0 1.5902773407317584e-15 0.0 1.987846675914698e-16 0.0 -11.388002485304394 11.04347646511843 -22.310495443155787 0.0 1.987846675914698e-16 0.0 70.93370928290277 -7.671173126678237 -46.07953343280497 112.35235268989898 -6.183110487089495e-15 3.5140838227540016e-15 0.0 0.0 0.0 0.0 0.0 0.0 0.5112360960822525 11.133512188249572 -8.612536624115062 -1.6642586725433914 15.573561437143162 3.14998977296948 0.0 0.0 0.0
0.0 0.0 836.4528000309624 28.73950313868485 -17.108152042621477 7.9510042510257515 2.2069531490250793e-32 3.1805546814635164e-15 -7.951386703658791e-16 0.33610505711597694 7.06184019753131 -2.7663100789290658 -0.016539425305757985 14.997930329937741 -0.9469087517974853 0.0 0.0 -1.987846675914698e-16 2.2069531490250793e-32 3.1805546814635164e-15 -7.951386703658791e-16 0.7256899264508087 15.111256323950496 1.0015856819745734 -2.319815449489458 -4.035238156216454e-16 2.900679759301565e-16 0.0 0.0 0.0 -90.65898048995048 12.749898431193877 49.49801958631097 -103.32637028076157 -4.9895140835312816e-15 3.945688981326451e-15 0.0 0.0 0.0 0.0 0.0 0.0 -11.346142911813995 10.90801204905657 -22.348479990520797 0.0 0.0 0.0 70.70444664665219 -7.811204943922202 -45.96763251036724 112.85420747429464 7.058806437227123e-15 8.676935465118992e-16 0.0 0.0 0.0 2.2069531490250793e-32 3.1805546814635164e-15 -7.951386703658791e-16 0.5114177454952732 10.838511864393984 -8.855555975509136 -1.6959483923367198 15.43063560697326 3.1848968394672434 0.0 0.0 0.0
0.0 0.0 836.4528000309624 28.699203971653297 -16.983887416724947 8.04418288153063 0.0 0.0 0.0 0.33493776544878817 6.762706156382996 -2.938302643265844 -0.033338642487454336 14.951724362117714 -1.020814194684977 0.0 0.0 1.987846675914698e-16 0.0 0.0 0.0 0.7567344071078608 15.136239150315618 0.9279159894817145 -2.363973068314167 1.8009829747002543e-15 -5.593221711057292e-16 0.0 0.0 2.981770013872047e-16 -91.03063319987426 12.773596316467788 49.42442124825491 -103.31375378188257 -2.4945398170139573e-15 1.973119150763954e-15 0.0 0.0 0.0 0.0 0.0 2.981770013872047e-16 -11.298629119188675 10.758246831207877 -22.467525797137323 0.0 0.0 2.981770013872047e-16 70.2874108422392 -7.964993055497145 -45.91073692967713 113.44933685276636 3.573112772572272e-15 6.149187387238931e-15 0.0 0.0 0.0 0.0 0.0 0.0 0.5247467559085066 10.685393451848471 -9.099708951326459 -1.724537050447824 15.356287735804363 3.3425842954232072 0.0 0.0 -1.1927080055488188e-15
0.0 0.0 836.4528000309624 28.65888840054272 -16.866976222360037 8.1869682461689 0.0 0.0 0.0 0.3293095219537698 6.4120759281782265 -3.1955502651475785 -0.07463051623498905 14.976855234855883 -1.0773840043374332 0.0 0.0 -9.939233379573489e-17 0.0 0.0 0.0 0.788879678812653 15.206476817044209 0.7759417247014719 -2.4643760315012617 8.248775729556691e-16 -1.374072179381087e-15 0.0 0.0 2.981770013872047e-16 -91.13630610708367 12.842772284593215 49.35439052773154 -103.21264273754095 -1.288687354955878e-14 -6.020552445853466e-15 0.0 0.0 0.0 0.0 0.0 2.981770013872047e-16 -11.138896161189056 10.70211351819005 -22.559114945017548 0.0 0.0 2.981770013872047e-16 69.94075144813718 -8.188652183921741 -45.734894148631064 113.92037365127185 -8.800681206306365e-15 1.864251849724677e-15 4.4139062980501586e-32 6.3611093629270335e-15 -7.951386703658792e-16 0.0 0.0 0.0 0.541394968643268 10.62506573562386 -9.390617695071175 -1.7341911802495895 15.010989564848156 3.4325782884208773 -5.862219302097867e-33 -1.6896696745274934e-15 -3.975693351829396e-16
